# xmcd
#
# Track frame offsets: 
#        150
#        15728
#        31735
#        48516
#        66452
#        83834
#        101758
#        118413
#        135148
#        155230
#        170493
#
# Disc length: 2467 seconds
#
# Revision: 1
# Processed by: cddbd v1.5.2PL0 Copyright (c) Steve Scherf et al.
# Submitted via: ExactAudioCopy v0.99pb4
#
DISCID=9309a10b
DTITLE=백지영 - Sensibility
DYEAR=2008
DGENRE=Ballad
TTITLE0=Go!
TTITLE1=입술을 주고
TTITLE2=돌아와줘
TTITLE3=총맞은것처럼
TTITLE4=여자들만 아는 거짓말
TTITLE5=멜로디 (feat. 마이티마우스)
TTITLE6=Sentimental City
TTITLE7=Keep The Faith
TTITLE8=그대의 의자
TTITLE9=이리와
TTITLE10=밤새도록 (Feat. 2AM)
EXTD=
EXTT0=
EXTT1=
EXTT2=
EXTT3=
EXTT4=
EXTT5=
EXTT6=
EXTT7=
EXTT8=
EXTT9=
EXTT10=
PLAYORDER=
